Coordinates
version=1
nRows=19
nColumns=34
inDegrees=yes

Units are S.I. units (second, meters, Newtons, ...)
If the header above contains a line with 'inDegrees', this indicates whether rotational values are in degrees (yes) or radians (no).

endheader
time	pelvis_tilt	pelvis_list	pelvis_rotation	pelvis_tx	pelvis_ty	pelvis_tz	hip_flexion_r	hip_adduction_r	hip_rotation_r	knee_angle_r	ankle_angle_r	subtalar_angle_r	mtp_angle_r	hip_flexion_l	hip_adduction_l	hip_rotation_l	knee_angle_l	ankle_angle_l	subtalar_angle_l	mtp_angle_l	lumbar_extension	lumbar_bending	lumbar_rotation	arm_flex_r	arm_add_r	arm_rot_r	elbow_flex_r	pro_sup_r	arm_flex_l	arm_add_l	arm_rot_l	elbow_flex_l	pro_sup_l
      4.41666670	     -4.86580342	      8.62287573	     -7.25417268	      0.37098525	      0.93646559	     -0.09365099	    -11.87986552	     -5.51005460	     -0.58697899	     13.26619264	     40.50786718	      9.26008834	      0.00000000	     22.51781309	     11.62846846	     -8.20015926	      7.60335065	      1.37437079	     -3.92045075	      0.00000000	      7.01228693	    -11.73896341	      0.24470144	     -4.85111268	     -1.90690761	      1.32749752	     29.77509182	     82.73517409	     -8.31743775	    -13.71176675	     13.96782354	     31.25435339	     77.43225873
      4.43333330	     -3.04434691	      6.12297923	     -7.32083859	      0.38461350	      0.94650291	     -0.09704582	    -10.64644618	     -4.28242969	     -1.34453621	     19.14674042	     39.74496707	     10.72257796	      0.00000000	     18.72217918	      9.75856395	     -6.03983358	      7.40276486	      1.85516720	     -3.16929428	      0.00000000	      5.23932805	     -9.11225331	     -0.90072861	     -4.21384228	     -2.51088154	      1.69859138	     28.56113383	     82.61711959	     -7.77116438	    -12.53071636	     14.15954196	     29.47058203	     77.36126434
      4.45000000	     -1.92330375	      4.41828458	     -7.54722247	      0.39583899	      0.95334801	     -0.10073875	     -8.65190896	     -3.90542417	     -2.18226808	     25.43427243	     39.08307652	     12.54423980	      0.00000000	     15.85447156	      8.38190373	     -4.93977268	      7.02604298	      2.36160005	     -2.66878209	      0.00000000	      4.26226048	     -7.20679357	     -1.33659362	     -3.79095413	     -3.05279705	      2.17941613	     27.25182006	     82.48130558	     -7.06301191	    -11.50131717	     14.30909893	     27.76035661	     77.26403330
      4.46666670	     -1.39454948	      3.36180145	     -7.75003455	      0.40588552	      0.95746040	     -0.10402995	     -6.54937902	     -3.92128111	     -2.57634715	     30.96405493	     37.65191311	     13.25707095	      0.00000000	     13.98562670	      7.49292988	     -4.42343105	      6.82863646	      2.94940205	     -2.39898431	      0.00000000	      3.65151414	     -5.97344122	     -1.75396662	     -3.59978609	     -3.43927982	      2.30165345	     26.84478137	     82.40750600	     -6.77721335	    -10.93796198	     14.45140224	     27.25779847	     77.24028267
      4.48333330	     -1.44859666	      2.99869316	     -8.03635423	      0.41612446	      0.96016127	     -0.10626377	     -4.56814317	     -4.49309723	     -3.07689699	     35.24134193	     36.14487952	     14.47308124	      0.00000000	     12.76332671	      7.20575443	     -4.38622640	      6.23563951	      3.81233017	     -1.84686546	      0.00000000	      4.02174807	     -5.43170814	     -1.83194401	     -3.49556670	     -3.64730201	      2.72367036	     26.05351636	     82.25394178	     -6.39346762	    -10.48635554	     14.61334854	     26.19923887	     77.14935418
      4.50000000	     -1.54279398	      2.76811829	     -8.19918009	      0.42587793	      0.96263284	     -0.10779693	     -3.21101656	     -4.83609321	     -3.32462328	     38.08090689	     33.95854664	     14.60986657	      0.00000000	     11.65500511	      7.03917890	     -4.23106563	      5.54456716	      4.49636918	     -1.52602165	      0.00000000	      4.13044830	     -5.15963426	     -2.03422124	     -3.59237598	     -3.76829499	      2.87481552	     25.85257658	     82.16502428	     -6.33118697	    -10.34945505	     14.73593645	     25.94864179	     77.11567213
      4.51666670	     -1.79734336	      2.52218511	     -8.30269225	      0.43557115	      0.96601389	     -0.10956752	     -1.83728789	     -4.95817263	     -3.47364517	     40.21276245	     31.84041423	     14.57154975	      0.00000000	     10.63539940	      6.85848934	     -4.11360770	      4.52458409	      5.05090152	     -0.91444316	      0.00000000	      4.42468707	     -4.82167310	     -2.18657821	     -3.69986532	     -3.87945560	      3.01361147	     25.68624600	     82.06717919	     -6.20283976	    -10.22950559	     14.85640908	     25.78915015	     77.07871294
      4.53333330	     -2.01767343	      2.09544890	     -8.31288090	      0.44603702	      0.96907534	     -0.11179658	     -0.47723446	     -4.78746966	     -3.64426855	     42.01788320	     29.44376246	     14.45265545	      0.00000000	      9.51872750	      6.55051131	     -3.89759498	      3.33012207	      5.48783618	     -0.18519645	      0.00000000	      4.63378877	     -4.26270372	     -2.38717664	     -3.80176596	     -4.02550183	      3.10563812	     25.55186074	     81.97308706	     -6.04106390	    -10.07077648	     14.97524004	     25.68676801	     77.04737777
      4.55000000	     -2.19801426	      1.49853359	     -8.25429865	      0.45625713	      0.97256635	     -0.11414888	      0.82051457	     -4.34107666	     -3.83707676	     43.40681857	     26.55141686	     14.06551234	      0.00000000	      8.34998342	      6.11777017	     -3.63734489	      2.05226929	      5.76813106	      0.60418660	      0.00000000	      4.80696460	     -3.53630137	     -2.60078086	     -3.88522070	     -4.20176235	      3.17465961	     25.41715717	     81.87410637	     -5.85901198	     -9.85972138	     15.09855002	     25.57371130	     77.01452289
      4.56666670	     -2.34221859	      0.75466641	     -8.16091505	      0.46516963	      0.97578549	     -0.11622375	      1.93429330	     -3.53006220	     -3.77310355	     44.14475112	     23.50977364	     12.75629430	      0.00000000	      7.21714324	      5.54615685	     -3.36820872	      0.83804722	      6.00918581	      1.59024935	      0.00000000	      4.90619328	     -2.60182430	     -2.85169695	     -3.84285162	     -4.42294494	      3.28063310	     25.27621006	     81.70222272	     -5.54679647	     -9.58914521	     15.27850022	     25.33999279	     76.94605360
      4.58333330	     -2.47807754	      0.02977797	     -8.00414902	      0.47301660	      0.97946788	     -0.11828274	      3.00517564	     -2.67966889	     -3.75203413	     44.35550683	     21.06201303	     11.61622282	      0.00000000	      6.29420519	      4.97395778	     -3.10754891	      0.00000000	      6.32879606	      2.31419827	      0.00000000	      4.88726493	     -1.73361469	     -3.14311070	     -3.85076923	     -4.62242151	      3.36558393	     25.18160413	     81.51692007	     -5.30306098	     -9.35757782	     15.44278977	     25.16459587	     76.86206670
      4.60000000	     -2.69566825	     -0.73119178	     -7.69045447	      0.48018986	      0.98331407	     -0.12058255	      4.18976356	     -1.71835716	     -3.85001062	     44.19174756	     19.40517291	     10.38600418	      0.00000000	      5.92379251	      4.30811306	     -2.95579131	      0.00000000	      6.96164855	      2.97431858	      0.00000000	      4.85876933	     -0.82571342	     -3.56074718	     -3.75770408	     -4.77416265	      3.42151399	     25.16125248	     81.32994887	     -5.00522206	     -9.16852746	     15.56855586	     25.06173855	     76.76581317
      4.61666670	     -2.85657344	     -1.46468651	     -7.36470731	      0.48727895	      0.98614457	     -0.12274496	      5.27468825	     -0.82803143	     -4.06839561	     43.54786391	     18.26704496	      9.40414595	      0.00000000	      5.52755317	      3.67529897	     -2.64677288	      0.00000000	      7.53721636	      3.37775654	      0.00000000	      4.79118088	      0.09152230	     -3.88136921	     -3.75890098	     -4.96313319	      3.42612584	     25.09709510	     81.23569863	     -4.75592558	     -8.93400214	     15.63040981	     25.09053906	     76.71506576
      4.63333330	     -2.95883026	     -2.08290184	     -7.00649323	      0.49431567	      0.98575156	     -0.12378829	      6.13657638	      0.03165893	     -4.18818060	     42.35453573	     17.15205711	      7.57686391	      0.00000000	      5.14344052	      3.14234959	     -2.47304990	      0.00000000	      8.06882302	      3.83639778	      0.00000000	      4.68771281	      0.76060228	     -4.34178079	     -3.57592442	     -4.97971296	      3.46528986	     25.11455173	     81.10634133	     -4.47084413	     -8.83633773	     15.67457362	     25.02265132	     76.62830524
      4.65000000	     -3.04689753	     -2.53314257	     -6.65756019	      0.50098167	      0.98401310	     -0.12408883	      6.71269748	      0.72569823	     -4.38222479	     40.56281115	     16.20164931	      5.97754239	      0.00000000	      4.81282937	      2.77645979	     -2.20910517	      0.00000000	      8.57104604	      4.17613505	      0.00000000	      4.59511755	      1.24227228	     -4.66818272	     -3.45324525	     -5.05167765	      3.50858349	     25.12195116	     80.98448145	     -4.22205671	     -8.70930499	     15.70446787	     25.06798623	     76.53545586
      4.66666670	     -3.12613039	     -2.90862494	     -6.32616551	      0.50702508	      0.98278763	     -0.12416853	      6.96699101	      1.37563317	     -4.62804026	     38.25332044	     15.26095977	      4.27494204	      0.00000000	      4.52390188	      2.47660264	     -2.02820636	      0.00000000	      8.96566680	      4.43282641	      0.00000000	      4.42248619	      1.60599510	     -4.95574097	     -3.35997244	     -5.02586887	      3.59515513	     25.20990816	     80.83774663	     -4.04724488	     -8.71764222	     15.70879666	     25.18295172	     76.40786773
      4.68333330	     -3.29671804	     -3.18802935	     -5.97269443	      0.51347847	      0.98227348	     -0.12459527	      7.10839205	      1.85960640	     -5.13359488	     35.59999281	     14.67901040	      3.46042464	      0.00000000	      4.33048895	      2.24918956	     -1.75023703	      0.00000000	      9.21959543	      4.62972869	      0.00000000	      4.53138441	      1.84816444	     -5.00328371	     -3.47748195	     -5.04235205	      3.64567459	     25.20944240	     80.78334585	     -3.92542731	     -8.66800894	     15.69960513	     25.36682680	     76.35304026
      4.70000000	     -3.34523113	     -3.48333001	     -5.63933352	      0.52065976	      0.98122811	     -0.12503385	      7.03381413	      2.40187553	     -5.45168521	     32.57259797	     13.37617026	      2.12646725	      0.00000000	      3.97839219	      2.00626765	     -1.52482548	      0.00000000	      9.58539427	      4.83335995	      0.00000000	      4.53045004	      2.17098581	     -5.28680055	     -3.33561899	     -5.06194874	      3.70667397	     25.37340143	     80.69895840	     -3.76242988	     -8.62880267	     15.70351413	     25.59954033	     76.27313158
      4.71666670	     -3.39394898	     -3.69829796	     -5.36271528	      0.52821241	      0.97941794	     -0.12510299	      6.87867839	      2.88193874	     -5.70287403	     29.19880570	     12.33415879	      1.21386951	      0.00000000	      3.58418946	      1.82994079	     -1.37318275	      0.00000000	      9.97045006	      5.04186057	      0.00000000	      4.62949287	      2.31670789	     -5.43737639	     -3.32914178	     -5.00947580	      3.80276756	     25.42847065	     80.62769736	     -3.73735096	     -8.66476919	     15.68558415	     25.80151376	     76.18963441
